<?xml version="1.0" encoding="UTF-8" standalone="no"?><svg xmlns="http://www.w3.org/2000/svg" xmlns:xlink="http://www.w3.org/1999/xlink" contentStyleType="text/css" height="134px" preserveAspectRatio="none" style="width:1219px;height:134px;background:#FFFFFF;" version="1.1" viewBox="0 0 1219 134" width="1219px" zoomAndPan="magnify"><defs/><g><line style="stroke:#333333;stroke-width:0.5;" x1="10" x2="10" y1="10" y2="104.2969"/><line style="stroke:#333333;stroke-width:0.5;" x1="1207" x2="1207" y1="10" y2="104.2969"/><line style="stroke:#333333;stroke-width:0.5;stroke-dasharray:3.0,5.0;" x1="52" x2="52" y1="10" y2="104.2969"/><line style="stroke:#333333;stroke-width:0.5;stroke-dasharray:3.0,5.0;" x1="102" x2="102" y1="10" y2="104.2969"/><line style="stroke:#333333;stroke-width:0.5;stroke-dasharray:3.0,5.0;" x1="152" x2="152" y1="10" y2="104.2969"/><line style="stroke:#333333;stroke-width:0.5;stroke-dasharray:3.0,5.0;" x1="202" x2="202" y1="10" y2="104.2969"/><line style="stroke:#333333;stroke-width:0.5;stroke-dasharray:3.0,5.0;" x1="252" x2="252" y1="10" y2="104.2969"/><line style="stroke:#333333;stroke-width:0.5;stroke-dasharray:3.0,5.0;" x1="302" x2="302" y1="10" y2="104.2969"/><line style="stroke:#333333;stroke-width:0.5;stroke-dasharray:3.0,5.0;" x1="352" x2="352" y1="10" y2="104.2969"/><line style="stroke:#333333;stroke-width:0.5;stroke-dasharray:3.0,5.0;" x1="402" x2="402" y1="10" y2="104.2969"/><line style="stroke:#333333;stroke-width:0.5;stroke-dasharray:3.0,5.0;" x1="452" x2="452" y1="10" y2="104.2969"/><line style="stroke:#333333;stroke-width:0.5;stroke-dasharray:3.0,5.0;" x1="502" x2="502" y1="10" y2="104.2969"/><line style="stroke:#333333;stroke-width:0.5;stroke-dasharray:3.0,5.0;" x1="552" x2="552" y1="10" y2="104.2969"/><line style="stroke:#333333;stroke-width:0.5;stroke-dasharray:3.0,5.0;" x1="602" x2="602" y1="10" y2="104.2969"/><line style="stroke:#333333;stroke-width:0.5;stroke-dasharray:3.0,5.0;" x1="652" x2="652" y1="10" y2="104.2969"/><line style="stroke:#333333;stroke-width:0.5;stroke-dasharray:3.0,5.0;" x1="702" x2="702" y1="10" y2="104.2969"/><line style="stroke:#333333;stroke-width:0.5;stroke-dasharray:3.0,5.0;" x1="752" x2="752" y1="10" y2="104.2969"/><line style="stroke:#333333;stroke-width:0.5;stroke-dasharray:3.0,5.0;" x1="802" x2="802" y1="10" y2="104.2969"/><line style="stroke:#333333;stroke-width:0.5;stroke-dasharray:3.0,5.0;" x1="852" x2="852" y1="10" y2="104.2969"/><line style="stroke:#333333;stroke-width:0.5;stroke-dasharray:3.0,5.0;" x1="902" x2="902" y1="10" y2="104.2969"/><line style="stroke:#333333;stroke-width:0.5;stroke-dasharray:3.0,5.0;" x1="952" x2="952" y1="10" y2="104.2969"/><line style="stroke:#333333;stroke-width:0.5;stroke-dasharray:3.0,5.0;" x1="1002" x2="1002" y1="10" y2="104.2969"/><line style="stroke:#333333;stroke-width:0.5;stroke-dasharray:3.0,5.0;" x1="1052" x2="1052" y1="10" y2="104.2969"/><line style="stroke:#333333;stroke-width:0.5;stroke-dasharray:3.0,5.0;" x1="1102" x2="1102" y1="10" y2="104.2969"/><line style="stroke:#333333;stroke-width:0.5;stroke-dasharray:3.0,5.0;" x1="1152" x2="1152" y1="10" y2="104.2969"/><line style="stroke:#333333;stroke-width:0.5;stroke-dasharray:3.0,5.0;" x1="1202" x2="1202" y1="10" y2="104.2969"/><line style="stroke:#333333;stroke-width:0.5;" x1="10" x2="1207" y1="10" y2="10"/><text fill="#333333" font-family="sans-serif" font-size="14" font-weight="bold" lengthAdjust="spacing" textLength="52" x="15" y="22.9951">MIROS</text><line style="stroke:#333333;stroke-width:0.5;" x1="10" x2="68" y1="27.2969" y2="27.2969"/><line style="stroke:#333333;stroke-width:0.5;" x1="68" x2="78" y1="27.2969" y2="10"/><text fill="#333333" font-family="sans-serif" font-size="12" lengthAdjust="spacing" textLength="26" x="15" y="97.4512">Blue</text><text fill="#333333" font-family="sans-serif" font-size="12" lengthAdjust="spacing" textLength="37" x="15" y="77.4512">Green</text><text fill="#333333" font-family="sans-serif" font-size="12" lengthAdjust="spacing" textLength="23" x="15" y="57.4512">Red</text><text fill="#333333" font-family="sans-serif" font-size="12" lengthAdjust="spacing" textLength="25" x="15" y="37.4512">IDLE</text><line style="stroke:#006400;stroke-width:2.0;" x1="52" x2="102" y1="92.2969" y2="92.2969"/><line style="stroke:#006400;stroke-width:2.0;" x1="102" x2="152" y1="72.2969" y2="72.2969"/><line style="stroke:#006400;stroke-width:2.0;" x1="152" x2="202" y1="52.2969" y2="52.2969"/><line style="stroke:#006400;stroke-width:2.0;" x1="202" x2="302" y1="32.2969" y2="32.2969"/><line style="stroke:#006400;stroke-width:2.0;" x1="302" x2="352" y1="92.2969" y2="92.2969"/><line style="stroke:#006400;stroke-width:2.0;" x1="352" x2="552" y1="32.2969" y2="32.2969"/><line style="stroke:#006400;stroke-width:2.0;" x1="552" x2="602" y1="92.2969" y2="92.2969"/><line style="stroke:#006400;stroke-width:2.0;" x1="602" x2="652" y1="72.2969" y2="72.2969"/><line style="stroke:#006400;stroke-width:2.0;" x1="652" x2="802" y1="32.2969" y2="32.2969"/><line style="stroke:#006400;stroke-width:2.0;" x1="802" x2="852" y1="92.2969" y2="92.2969"/><line style="stroke:#006400;stroke-width:2.0;" x1="852" x2="1052" y1="32.2969" y2="32.2969"/><line style="stroke:#006400;stroke-width:2.0;" x1="1052" x2="1102" y1="92.2969" y2="92.2969"/><line style="stroke:#006400;stroke-width:2.0;" x1="1102" x2="1152" y1="72.2969" y2="72.2969"/><line style="stroke:#006400;stroke-width:2.0;" x1="1152" x2="1202" y1="52.2969" y2="52.2969"/><line style="stroke:#006400;stroke-width:2.0;" x1="102" x2="102" y1="72.2969" y2="92.2969"/><line style="stroke:#006400;stroke-width:2.0;" x1="152" x2="152" y1="52.2969" y2="72.2969"/><line style="stroke:#006400;stroke-width:2.0;" x1="202" x2="202" y1="32.2969" y2="52.2969"/><line style="stroke:#006400;stroke-width:2.0;" x1="302" x2="302" y1="32.2969" y2="92.2969"/><line style="stroke:#006400;stroke-width:2.0;" x1="352" x2="352" y1="32.2969" y2="92.2969"/><line style="stroke:#006400;stroke-width:2.0;" x1="552" x2="552" y1="32.2969" y2="92.2969"/><line style="stroke:#006400;stroke-width:2.0;" x1="602" x2="602" y1="72.2969" y2="92.2969"/><line style="stroke:#006400;stroke-width:2.0;" x1="652" x2="652" y1="32.2969" y2="72.2969"/><line style="stroke:#006400;stroke-width:2.0;" x1="802" x2="802" y1="32.2969" y2="92.2969"/><line style="stroke:#006400;stroke-width:2.0;" x1="852" x2="852" y1="32.2969" y2="92.2969"/><line style="stroke:#006400;stroke-width:2.0;" x1="1052" x2="1052" y1="32.2969" y2="92.2969"/><line style="stroke:#006400;stroke-width:2.0;" x1="1102" x2="1102" y1="72.2969" y2="92.2969"/><line style="stroke:#006400;stroke-width:2.0;" x1="1152" x2="1152" y1="52.2969" y2="72.2969"/><line style="stroke:#333333;stroke-width:2.0;" x1="52" x2="52" y1="104.2969" y2="109.2969"/><line style="stroke:#333333;stroke-width:2.0;" x1="102" x2="102" y1="104.2969" y2="109.2969"/><line style="stroke:#333333;stroke-width:2.0;" x1="152" x2="152" y1="104.2969" y2="109.2969"/><line style="stroke:#333333;stroke-width:2.0;" x1="202" x2="202" y1="104.2969" y2="109.2969"/><line style="stroke:#333333;stroke-width:2.0;" x1="252" x2="252" y1="104.2969" y2="109.2969"/><line style="stroke:#333333;stroke-width:2.0;" x1="302" x2="302" y1="104.2969" y2="109.2969"/><line style="stroke:#333333;stroke-width:2.0;" x1="352" x2="352" y1="104.2969" y2="109.2969"/><line style="stroke:#333333;stroke-width:2.0;" x1="402" x2="402" y1="104.2969" y2="109.2969"/><line style="stroke:#333333;stroke-width:2.0;" x1="452" x2="452" y1="104.2969" y2="109.2969"/><line style="stroke:#333333;stroke-width:2.0;" x1="502" x2="502" y1="104.2969" y2="109.2969"/><line style="stroke:#333333;stroke-width:2.0;" x1="552" x2="552" y1="104.2969" y2="109.2969"/><line style="stroke:#333333;stroke-width:2.0;" x1="602" x2="602" y1="104.2969" y2="109.2969"/><line style="stroke:#333333;stroke-width:2.0;" x1="652" x2="652" y1="104.2969" y2="109.2969"/><line style="stroke:#333333;stroke-width:2.0;" x1="702" x2="702" y1="104.2969" y2="109.2969"/><line style="stroke:#333333;stroke-width:2.0;" x1="752" x2="752" y1="104.2969" y2="109.2969"/><line style="stroke:#333333;stroke-width:2.0;" x1="802" x2="802" y1="104.2969" y2="109.2969"/><line style="stroke:#333333;stroke-width:2.0;" x1="852" x2="852" y1="104.2969" y2="109.2969"/><line style="stroke:#333333;stroke-width:2.0;" x1="902" x2="902" y1="104.2969" y2="109.2969"/><line style="stroke:#333333;stroke-width:2.0;" x1="952" x2="952" y1="104.2969" y2="109.2969"/><line style="stroke:#333333;stroke-width:2.0;" x1="1002" x2="1002" y1="104.2969" y2="109.2969"/><line style="stroke:#333333;stroke-width:2.0;" x1="1052" x2="1052" y1="104.2969" y2="109.2969"/><line style="stroke:#333333;stroke-width:2.0;" x1="1102" x2="1102" y1="104.2969" y2="109.2969"/><line style="stroke:#333333;stroke-width:2.0;" x1="1152" x2="1152" y1="104.2969" y2="109.2969"/><line style="stroke:#333333;stroke-width:2.0;" x1="1202" x2="1202" y1="104.2969" y2="109.2969"/><line style="stroke:#333333;stroke-width:2.0;" x1="52" x2="1202" y1="104.2969" y2="104.2969"/><text fill="#333333" font-family="sans-serif" font-size="11" lengthAdjust="spacing" textLength="7" x="48.5" y="120.5073">0</text><text fill="#333333" font-family="sans-serif" font-size="11" lengthAdjust="spacing" textLength="7" x="98.5" y="120.5073">1</text><text fill="#333333" font-family="sans-serif" font-size="11" lengthAdjust="spacing" textLength="7" x="148.5" y="120.5073">2</text><text fill="#333333" font-family="sans-serif" font-size="11" lengthAdjust="spacing" textLength="7" x="198.5" y="120.5073">3</text><text fill="#333333" font-family="sans-serif" font-size="11" lengthAdjust="spacing" textLength="7" x="298.5" y="120.5073">5</text><text fill="#333333" font-family="sans-serif" font-size="11" lengthAdjust="spacing" textLength="7" x="348.5" y="120.5073">6</text><text fill="#333333" font-family="sans-serif" font-size="11" lengthAdjust="spacing" textLength="14" x="545" y="120.5073">10</text><text fill="#333333" font-family="sans-serif" font-size="11" lengthAdjust="spacing" textLength="14" x="595" y="120.5073">11</text><text fill="#333333" font-family="sans-serif" font-size="11" lengthAdjust="spacing" textLength="14" x="645" y="120.5073">12</text><text fill="#333333" font-family="sans-serif" font-size="11" lengthAdjust="spacing" textLength="14" x="795" y="120.5073">15</text><text fill="#333333" font-family="sans-serif" font-size="11" lengthAdjust="spacing" textLength="14" x="845" y="120.5073">16</text><text fill="#333333" font-family="sans-serif" font-size="11" lengthAdjust="spacing" textLength="14" x="1045" y="120.5073">20</text><text fill="#333333" font-family="sans-serif" font-size="11" lengthAdjust="spacing" textLength="14" x="1095" y="120.5073">21</text><text fill="#333333" font-family="sans-serif" font-size="11" lengthAdjust="spacing" textLength="14" x="1145" y="120.5073">22</text><!--MD5=[7dbe074d30bf9eb4e2b5b5feb470ed9e]
@startuml
robust "MIROS" as m


@0
m is Blue

@1
m is Green

@2
m is Red

@3
m is IDLE

@5
m is Blue

@6
m is IDLE

@10
m is Blue



@11
m is Green

@12
m is IDLE

@15
m is Blue

@16
m is IDLE

@20
m is Blue

@21
m is Green

@22
m is Red
@enduml

PlantUML version 1.2022.6beta2(Unknown compile time)
(GPL source distribution)
Java Runtime: Java(TM) SE Runtime Environment
JVM: Java HotSpot(TM) 64-Bit Server VM
Default Encoding: UTF-8
Language: en
Country: US
--></g></svg>